<svg width="161" height="76" viewBox="0 0 161 76" fill="none" xmlns="http://www.w3.org/2000/svg">
<path d="M154.736 43.3346L149.098 60.7665L144.086 43.3346H137.821L145.965 66.5502C145.339 69.663 143.459 71.5307 140.327 69.663L138.448 74.021C144.712 76.5112 148.471 74.6435 150.977 68.4179L161 43.3346H154.736Z" fill="white"/>
<path d="M59.5137 57.0373V43.3408H65.1518V56.4148C65.1518 58.905 66.4047 61.3953 69.537 61.3953C72.6693 61.3953 73.9222 58.905 73.9222 56.4148V43.3408H79.5604V65.7533H73.9222V62.0179C73.2958 64.5081 70.9716 66.3758 67.833 66.3758C63.8989 66.3758 59.5137 64.421 59.5137 57.0373Z" fill="white"/>
<path d="M80.1926 17.8156C80.1926 10.9611 76.4276 5.98059 69.5365 5.98059C62.6455 5.98059 58.8867 10.9611 58.8867 17.8094C58.8867 24.6576 62.6455 29.6382 70.163 29.6382C76.5717 29.6382 78.9334 25.2802 79.5599 24.0351L74.5482 22.7899C73.502 24.4397 71.1277 25.0249 69.6556 24.9814C66.6924 24.9067 64.5186 22.7775 64.5249 19.6771L80.1926 19.6833V17.8156ZM64.5249 15.9417C64.5186 13.4452 66.091 10.9611 69.5365 10.9611C72.982 10.9611 74.5545 13.6382 74.5545 15.9479L64.5249 15.9417Z" fill="white"/>
<path d="M88.3305 1H82.6924V29.0156H88.3305V1Z" fill="white"/>
<path d="M135.942 37.7316H130.304V65.7471H135.942V37.7316Z" fill="white"/>
<path d="M51.2694 1V12.2062H39.3666V1H33.7285V12.5175V17.4981V29.0156H39.3666V17.8093H51.2694V29.0156H56.9075V1H51.2694Z" fill="white"/>
<path d="M39.786 56.7573C39.9927 59.5526 42.2166 61.4825 45.7561 61.4825C48.594 61.4825 50.6989 60.2499 50.6989 57.9899C50.6989 55.5682 48.3497 55.0701 43.5385 54.1238C38.6709 53.2211 34.3922 51.6584 34.3922 45.825C34.3922 40.7697 38.8776 37.1152 45.1359 37.1152C51.5571 37.1152 56.2117 40.9378 56.337 46.1549H50.2854C50.0411 43.7331 48.1429 42.046 45.1359 42.046C42.4985 42.046 40.6066 43.1541 40.6066 45.3767C40.6066 47.7176 42.8681 48.2094 47.648 49.1183C52.5908 50.0211 56.951 51.5028 56.9134 57.2989C56.8695 62.5596 52.1398 66.3822 45.6747 66.3822C38.6771 66.3822 33.8158 62.2732 33.7344 56.6826L39.786 56.7573Z" fill="white"/>
<path d="M104.305 5.98059C101.029 5.98059 98.6171 7.81094 97.101 10.3386V6.60316H91.4629V37.7316H97.101V25.9028C98.473 28.0133 100.734 29.6382 104.305 29.6382C109.323 29.6382 113.389 25.2802 113.389 17.8094C113.389 10.3386 109.323 5.98059 104.305 5.98059ZM102.426 24.8506C98.8488 24.8506 97.101 21.881 97.101 18.2141C97.101 14.5471 98.8488 11.5837 102.426 11.5837C105.972 11.5837 107.751 14.5534 107.751 18.2203C107.751 21.8872 105.972 24.8506 102.426 24.8506Z" fill="white"/>
<path d="M95.5348 42.712C92.2584 42.712 89.8465 44.5424 88.3305 47.07V43.3346H82.6924V74.463H88.3305V62.6342C89.7025 64.7447 91.964 66.3696 95.5348 66.3696C100.553 66.3696 104.618 62.0117 104.618 54.5408C104.618 47.07 100.553 42.712 95.5348 42.712ZM93.6554 61.5821C90.0783 61.5821 88.3305 58.6124 88.3305 54.9455C88.3305 51.2786 90.0783 48.3151 93.6554 48.3151C97.2012 48.3151 98.9803 51.2848 98.9803 54.9517C98.9803 58.6187 97.2012 61.5821 93.6554 61.5821Z" fill="white"/>
<path d="M119.34 42.712C116.064 42.712 113.652 44.5424 112.136 47.07V43.3346H106.498V74.463H112.136V62.6342C113.508 64.7447 115.77 66.3696 119.34 66.3696C124.358 66.3696 128.424 62.0117 128.424 54.5408C128.424 47.07 124.358 42.712 119.34 42.712ZM117.461 61.5821C113.884 61.5821 112.136 58.6124 112.136 54.9455C112.136 51.2786 113.884 48.3151 117.461 48.3151C121.007 48.3151 122.786 51.2848 122.786 54.9517C122.786 58.6187 121.007 61.5821 117.461 61.5821Z" fill="white"/>
<path d="M16.9145 1H11.2764V29.0156H16.9145V1Z" fill="white"/>
<path d="M28.1907 12.2062H0V17.8093H28.1907V12.2062Z" fill="white"/>
</svg>
