<svg width="161" height="77" viewBox="0 0 161 77" fill="#FF5A5F" xmlns="http://www.w3.org/2000/svg">
  <path d="M38.8693 30H44.1392V17.642H57.6193V30H62.9034V0.90909H57.6193V13.2244H44.1392V0.90909H38.8693V30ZM76.4668 30.4261C81.552 30.4261 85.0463 27.9403 85.9554 24.1477L81.1543 23.608C80.4582 25.4545 78.7537 26.4205 76.5378 26.4205C73.2139 26.4205 71.0122 24.233 70.9696 20.4972H86.1685V18.9205C86.1685 11.2642 81.5662 7.89773 76.1969 7.89773C69.9469 7.89773 65.8702 12.4858 65.8702 19.2188C65.8702 26.0653 69.8901 30.4261 76.4668 30.4261ZM70.9838 17.0312C71.1401 14.2472 73.1997 11.9034 76.2679 11.9034C79.2224 11.9034 81.2111 14.0625 81.2395 17.0312H70.9838ZM94.0607 0.90909H88.9186V30H94.0607V0.90909ZM97.7483 38.1818H102.89V26.5625H103.103C103.913 28.1534 105.603 30.3835 109.353 30.3835C114.495 30.3835 118.345 26.3068 118.345 19.1193C118.345 11.8466 114.382 7.89773 109.339 7.89773C105.49 7.89773 103.885 10.2131 103.103 11.7898H102.805V8.18182H97.7483V38.1818ZM102.791 19.0909C102.791 14.858 104.609 12.1165 107.919 12.1165C111.342 12.1165 113.103 15.0284 113.103 19.0909C113.103 23.1818 111.314 26.1648 107.919 26.1648C104.638 26.1648 102.791 23.3239 102.791 19.0909ZM54.679 46.9062H59.75C59.6506 41.9915 55.4602 38.5114 49.267 38.5114C43.1591 38.5114 38.571 41.9489 38.5852 47.0909C38.5852 51.267 41.554 53.6676 46.3409 54.9034L49.6506 55.7557C52.7898 56.5511 54.8636 57.5312 54.8778 59.7898C54.8636 62.2756 52.5057 63.9375 49.0682 63.9375C45.7727 63.9375 43.2159 62.4602 43.0028 59.4062H37.8182C38.0312 65.1875 42.3352 68.4403 49.1108 68.4403C56.0852 68.4403 60.1335 64.9602 60.1477 59.8324C60.1335 54.7898 55.9716 52.4886 51.5966 51.4517L48.8693 50.7699C46.483 50.2017 43.8977 49.1932 43.9261 46.7642C43.9403 44.5767 45.9006 42.9716 49.196 42.9716C52.3352 42.9716 54.4091 44.4347 54.679 46.9062ZM76.9249 58.8239C76.9249 62.1477 74.5527 63.7955 72.28 63.7955C69.8084 63.7955 68.1607 62.0483 68.1607 59.2784V46.1818H63.0186V60.0739C63.0186 65.3153 66.0016 68.2841 70.2913 68.2841C73.5584 68.2841 75.8595 66.5653 76.8538 64.1222H77.0811V68H82.0669V46.1818H76.9249V58.8239ZM85.7545 76.1818H90.8966V64.5625H91.1097C91.9193 66.1534 93.6097 68.3835 97.3597 68.3835C102.502 68.3835 106.351 64.3068 106.351 57.1193C106.351 49.8466 102.388 45.8977 97.3455 45.8977C93.496 45.8977 91.8909 48.2131 91.1097 49.7898H90.8114V46.1818H85.7545V76.1818ZM90.7972 57.0909C90.7972 52.858 92.6153 50.1165 95.925 50.1165C99.3483 50.1165 101.11 53.0284 101.11 57.0909C101.11 61.1818 99.3199 64.1648 95.925 64.1648C92.6437 64.1648 90.7972 61.3239 90.7972 57.0909ZM109.155 76.1818H114.297V64.5625H114.51C115.319 66.1534 117.01 68.3835 120.76 68.3835C125.902 68.3835 129.751 64.3068 129.751 57.1193C129.751 49.8466 125.788 45.8977 120.745 45.8977C116.896 45.8977 115.291 48.2131 114.51 49.7898H114.211V46.1818H109.155V76.1818ZM114.197 57.0909C114.197 52.858 116.015 50.1165 119.325 50.1165C122.748 50.1165 124.51 53.0284 124.51 57.0909C124.51 61.1818 122.72 64.1648 119.325 64.1648C116.044 64.1648 114.197 61.3239 114.197 57.0909ZM137.697 38.9091H132.555V68H137.697V38.9091ZM144.58 76.1392C148.586 76.1392 150.901 74.0653 152.137 70.642L160.901 46.2102L155.404 46.1818L150.362 62.6591H150.134L145.106 46.1818H139.651L147.563 68.4545L147.123 69.6335C146.143 72.0483 144.665 72.233 142.421 71.5938L141.228 75.5852C141.924 75.8835 143.174 76.1392 144.58 76.1392Z" fill="current-color"/>
  <path fill-rule="evenodd" clip-rule="evenodd" d="M16.6998 1H12.2998V13.2998H0V17.6998H12.2998V30H16.6998V17.6998H29V13.2998H16.6998V1Z" fill="current-color"/>
</svg>