<svg width="172" height="25" viewBox="0 0 172 25" fill="none" xmlns="http://www.w3.org/2000/svg" fill="#FF5A5F">
  <path d="M30 19.5701H33.4974V11.3688H42.4434V19.5701H45.9502V0.263952H42.4434V8.43703H33.4974V0.263952H30V19.5701Z" fill="#FF5A5F"/>
  <path d="M54.9515 19.8529C58.3264 19.8529 60.6454 18.2032 61.2487 15.6863L58.0624 15.3281C57.6005 16.5535 56.4693 17.1946 54.9987 17.1946C52.7928 17.1946 51.3316 15.7428 51.3034 13.2636H61.3901V12.2172C61.3901 7.13612 58.3358 4.90196 54.7724 4.90196C50.6246 4.90196 47.9191 7.94683 47.9191 12.4152C47.9191 16.9589 50.5869 19.8529 54.9515 19.8529ZM51.3128 10.9634C51.4165 9.11576 52.7834 7.56033 54.8196 7.56033C56.7804 7.56033 58.1001 8.99321 58.119 10.9634H51.3128Z" fill="current-color"/>
  <path d="M66.6277 0.263952H63.2152V19.5701H66.6277V0.263952Z" fill="current-color"/>
  <path d="M69.075 25H72.4876V17.2888H72.629C73.1663 18.3446 74.2881 19.8247 76.7768 19.8247C80.1893 19.8247 82.744 17.1192 82.744 12.3492C82.744 7.52262 80.1139 4.90196 76.7673 4.90196C74.2127 4.90196 73.1474 6.43854 72.629 7.48492H72.431V5.0905H69.075V25ZM72.4216 12.3303C72.4216 9.52112 73.6282 7.70174 75.8247 7.70174C78.0965 7.70174 79.2655 9.63424 79.2655 12.3303C79.2655 15.0452 78.0777 17.0249 75.8247 17.0249C73.6471 17.0249 72.4216 15.1395 72.4216 12.3303Z" fill="current-color"/>
  <path d="M100.77 5.57127H104.136C104.07 2.30958 101.289 0 97.1785 0C93.125 0 90.0801 2.2813 90.0896 5.69382C90.0896 8.46531 92.0598 10.0584 95.2366 10.8786L97.4331 11.4442C99.5164 11.9721 100.893 12.6226 100.902 14.1214C100.893 15.7711 99.3279 16.8741 97.0466 16.8741C94.8595 16.8741 93.1627 15.8937 93.0213 13.8669H89.5805C89.7219 17.7036 92.5782 19.8624 97.0748 19.8624C101.703 19.8624 104.39 17.5528 104.4 14.1497C104.39 10.8032 101.628 9.27602 98.7245 8.58786L96.9146 8.13537C95.3309 7.7583 93.6152 7.08899 93.634 5.477C93.6435 4.02527 94.9444 2.96003 97.1314 2.96003C99.2147 2.96003 100.591 3.931 100.77 5.57127Z" fill="current-color"/>
  <path d="M115.534 13.4804C115.534 15.6863 113.959 16.7798 112.451 16.7798C110.811 16.7798 109.717 15.6203 109.717 13.7821V5.0905H106.305V14.31C106.305 17.7885 108.284 19.7587 111.131 19.7587C113.299 19.7587 114.827 18.618 115.487 16.9966H115.637V19.5701H118.946V5.0905H115.534V13.4804Z" fill="current-color"/>
  <path d="M121.393 25H124.806V17.2888H124.947C125.485 18.3446 126.607 19.8247 129.095 19.8247C132.508 19.8247 135.062 17.1192 135.062 12.3492C135.062 7.52262 132.432 4.90196 129.086 4.90196C126.531 4.90196 125.466 6.43854 124.947 7.48492H124.749V5.0905H121.393V25ZM124.74 12.3303C124.74 9.52112 125.947 7.70174 128.143 7.70174C130.415 7.70174 131.584 9.63424 131.584 12.3303C131.584 15.0452 130.396 17.0249 128.143 17.0249C125.965 17.0249 124.74 15.1395 124.74 12.3303Z" fill="current-color"/>
  <path d="M136.923 25H140.335V17.2888H140.477C141.014 18.3446 142.136 19.8247 144.625 19.8247C148.037 19.8247 150.592 17.1192 150.592 12.3492C150.592 7.52262 147.962 4.90196 144.615 4.90196C142.061 4.90196 140.995 6.43854 140.477 7.48492H140.279V5.0905H136.923V25ZM140.269 12.3303C140.269 9.52112 141.476 7.70174 143.673 7.70174C145.944 7.70174 147.113 9.63424 147.113 12.3303C147.113 15.0452 145.926 17.0249 143.673 17.0249C141.495 17.0249 140.269 15.1395 140.269 12.3303Z" fill="current-color"/>
  <path d="M155.865 0.263952H152.452V19.5701H155.865V0.263952Z" fill="current-color"/>
  <path d="M160.433 24.9717C163.092 24.9717 164.628 23.5954 165.448 21.3235L171.265 5.10935L167.616 5.0905L164.27 16.0256H164.119L160.782 5.0905H157.162L162.413 19.8718L162.121 20.6542C161.47 22.2568 160.49 22.3793 159 21.9551L158.208 24.6041C158.67 24.802 159.5 24.9717 160.433 24.9717Z" fill="current-color"/>
  <rect x="7.98633" y="0.299805" width="3.32759" height="19.3" fill="current-color"/>
  <rect x="19.2998" y="8.28564" width="3.32759" height="19.3" transform="rotate(90 19.2998 8.28564)" fill="current-color"/>
</svg>